<svg xmlns="http://www.w3.org/2000/svg" width="1600" height="620" viewBox="0 0 1600 620"><defs><linearGradient id="g" x1="0" y1="0" x2="1" y2="1"><stop stop-color="#f8fbff"/><stop offset="1" stop-color="#edf4ff"/></linearGradient><filter id="s"><feDropShadow dx="0" dy="10" stdDeviation="14" flood-color="#0f315f" flood-opacity=".1"/></filter><marker id="a" markerWidth="10" markerHeight="10" refX="8" refY="3" orient="auto"><path d="M0 0L9 3L0 6Z" fill="#2263d6"/></marker></defs><rect width="1600" height="620" rx="28" fill="url(#g)"/><g stroke="#2263d6" stroke-width="4" marker-end="url(#a)"><path d="M270 275H300"/><path d="M530 275H560"/><path d="M790 275H820"/><path d="M1050 275H1080"/><path d="M1310 275H1340"/></g><g font-family="Arial,sans-serif" filter="url(#s)">
<g transform="translate(40 90)"><rect width="230" height="370" rx="20" fill="#fff" stroke="#cbdcf8"/><circle cx="38" cy="38" r="20" fill="#1457c8"/><text x="38" y="45" fill="#fff" font-size="14" text-anchor="middle" font-weight="700">01</text><text x="72" y="45" font-size="22" fill="#10213e" font-weight="700">수주</text><rect x="28" y="92" width="174" height="190" rx="10" fill="#f7f9fd" stroke="#dbe4f2"/><text x="45" y="125" font-size="14" fill="#5a6a82">주문번호</text><text x="140" y="125" font-size="14" fill="#10213e">SO-2504</text><text x="45" y="157" font-size="14" fill="#5a6a82">수량</text><text x="140" y="157" font-size="14" fill="#10213e">5,000 EA</text><text x="45" y="189" font-size="14" fill="#5a6a82">납기</text><text x="140" y="189" font-size="14" fill="#10213e">06-20</text><path d="M48 248v-30M78 248v-50M108 248v-38M138 248v-72M168 248v-58" stroke="#4a82df" stroke-width="12"/><text x="28" y="330" font-size="18" fill="#24466f" font-weight="700">주문·납기 데이터</text></g>
<g transform="translate(300 90)"><rect width="230" height="370" rx="20" fill="#fff" stroke="#cbdcf8"/><circle cx="38" cy="38" r="20" fill="#1457c8"/><text x="38" y="45" fill="#fff" font-size="14" text-anchor="middle" font-weight="700">02</text><text x="72" y="45" font-size="22" fill="#10213e" font-weight="700">AI 인식</text><rect x="28" y="92" width="174" height="190" rx="10" fill="#f7f9fd" stroke="#dbe4f2"/><path d="M66 125h98v110H66zM82 148h66M82 174h66M82 200h44" fill="none" stroke="#7b91af" stroke-width="3"/><circle cx="165" cy="235" r="22" fill="#e9f1ff"/><path d="M155 235l7 7 14-17" fill="none" stroke="#1457c8" stroke-width="4"/><text x="28" y="330" font-size="18" fill="#6941c6" font-weight="700">The Eye</text></g>
<g transform="translate(560 90)"><rect width="230" height="370" rx="20" fill="#fff" stroke="#cbdcf8"/><circle cx="38" cy="38" r="20" fill="#1457c8"/><text x="38" y="45" fill="#fff" font-size="14" text-anchor="middle" font-weight="700">03</text><text x="72" y="45" font-size="22" fill="#10213e" font-weight="700">생산계획</text><rect x="28" y="92" width="174" height="190" rx="10" fill="#f7f9fd" stroke="#dbe4f2"/><path d="M62 125v120M62 245h108" stroke="#bac9de" stroke-width="2"/><path d="M78 145h45M92 175h66M73 205h50M118 235h48" stroke="#238561" stroke-width="15"/><text x="28" y="330" font-size="18" fill="#09835d" font-weight="700">The Brain</text></g>
<g transform="translate(820 90)"><rect width="230" height="370" rx="20" fill="#fff" stroke="#cbdcf8"/><circle cx="38" cy="38" r="20" fill="#1457c8"/><text x="38" y="45" fill="#fff" font-size="14" text-anchor="middle" font-weight="700">04</text><text x="72" y="45" font-size="22" fill="#10213e" font-weight="700">현장실행</text><rect x="28" y="92" width="174" height="190" rx="10" fill="#f7f9fd" stroke="#dbe4f2"/><text x="48" y="132" font-size="13" fill="#5a6a82">가동 설비</text><text x="48" y="166" font-size="27" fill="#1769d2" font-weight="700">28 / 32</text><text x="48" y="210" font-size="13" fill="#5a6a82">생산 진행률</text><rect x="48" y="226" width="130" height="12" rx="6" fill="#dce7f8"/><rect x="48" y="226" width="94" height="12" rx="6" fill="#1769d2"/><text x="28" y="330" font-size="18" fill="#1769d2" font-weight="700">Field AI</text></g>
<g transform="translate(1080 90)"><rect width="230" height="370" rx="20" fill="#fff" stroke="#cbdcf8"/><circle cx="38" cy="38" r="20" fill="#1457c8"/><text x="38" y="45" fill="#fff" font-size="14" text-anchor="middle" font-weight="700">05</text><text x="72" y="45" font-size="22" fill="#10213e" font-weight="700">품질추적</text><rect x="28" y="92" width="174" height="190" rx="10" fill="#f7f9fd" stroke="#dbe4f2"/><path d="M47 230l26-35 27 13 27-50 27 16 28-46" fill="none" stroke="#df7500" stroke-width="4"/><path d="M47 245h135M47 120v125" stroke="#bac9de" stroke-width="2"/><text x="28" y="330" font-size="18" fill="#df7500" font-weight="700">The Flow</text></g>
<g transform="translate(1340 90)"><rect width="230" height="370" rx="20" fill="#fff" stroke="#cbdcf8"/><circle cx="38" cy="38" r="20" fill="#1457c8"/><text x="38" y="45" fill="#fff" font-size="14" text-anchor="middle" font-weight="700">06</text><text x="72" y="45" font-size="22" fill="#10213e" font-weight="700">출하</text><rect x="28" y="92" width="174" height="190" rx="10" fill="#f7f9fd" stroke="#dbe4f2"/><circle cx="115" cy="185" r="55" fill="none" stroke="#dce7f8" stroke-width="16"/><path d="M115 130a55 55 0 1 1-43 21" fill="none" stroke="#1457c8" stroke-width="16"/><text x="115" y="195" font-size="28" fill="#1457c8" text-anchor="middle" font-weight="700">98%</text><text x="28" y="330" font-size="18" fill="#24466f" font-weight="700">실적·이력 연결</text></g></g>
<rect x="140" y="510" width="1320" height="72" rx="22" fill="#fff" stroke="#9dbcf0"/><text x="800" y="554" text-anchor="middle" font-family="Arial,sans-serif" font-size="21" fill="#174caa" font-weight="700">기존 ERP·MES를 교체하지 않고 Read-only 연동으로 연결</text></svg>
